<svg width="62" height="62" viewBox="0 0 62 62" fill="none" xmlns="http://www.w3.org/2000/svg">
<path d="M60.493 40.902L58.869 37.829C58.946 37.564 59 37.289 59 37C59 36.229 58.699 35.532 58.22 35C58.7 34.468 59 33.771 59 33C59 32.229 58.699 31.532 58.22 31C58.7 30.468 59 29.771 59 29C59 28.605 58.919 28.23 58.78 27.884C60.055 27.538 61 26.383 61 25C61 23.346 59.654 22 58 22H57.723L60.605 16.958C60.863 16.506 61 15.991 61 15.469V15C61 13.346 59.654 12 58 12C56.494 12 55.68 12.724 55.085 13.252C54.578 13.703 54.243 14 53.497 14C52.752 14 52.417 13.703 51.91 13.252C51.315 12.724 50.501 12 48.995 12C47.49 12 46.676 12.724 46.081 13.252C45.574 13.703 45.24 14 44.495 14C43.752 14 43.418 13.703 42.913 13.253C42.318 12.724 41.505 12 40 12C38.346 12 37 13.346 37 15V15.469C37 15.991 37.137 16.506 37.396 16.957L38.563 19H37.236C36.139 19 35.044 19.19 34 19.529V5C34 2.243 31.757 0 29 0H5C2.243 0 0 2.243 0 5V57C0 59.757 2.243 62 5 62H29C31.757 62 34 59.757 34 57V37.811C34.171 37.897 34.346 37.973 34.511 38.072L35.46 38.642C36.292 39.141 37.197 39.493 38.132 39.718L37.507 40.901C36.521 42.767 36 44.867 36 47C36 54.168 41.832 60 49 60C56.168 60 62 54.168 62 46.976C62 44.867 61.479 42.767 60.493 40.902ZM39 15C39 14.449 39.448 14 40 14C40.743 14 41.078 14.297 41.583 14.747C42.178 15.276 42.991 16 44.495 16C46 16 46.814 15.276 47.409 14.748C47.916 14.297 48.25 14 48.995 14C49.74 14 50.075 14.297 50.582 14.748C51.177 15.276 51.991 16 53.497 16C55.003 16 55.818 15.276 56.413 14.748C56.92 14.297 57.255 14 58 14C58.552 14 59 14.449 59 15V15.469C59 15.643 58.954 15.814 58.868 15.965L55.42 22H42.58L39.132 15.964C39.046 15.814 39 15.643 39 15.469V15ZM5 2H29C30.654 2 32 3.346 32 5V8H2V5C2 3.346 3.346 2 5 2ZM29 60H5C3.346 60 2 58.654 2 57V54H32V57C32 58.654 30.654 60 29 60ZM32 52H2V10H32V20.343C31.358 20.608 30.687 20.796 30 20.898V12H4V50H30V37H30.639C31.098 37 31.552 37.057 32 37.14V52ZM14 19V39H26V37H28V48H6V14H28V21H26V19H14ZM20 25V37H16V21H20V23H22V21H24V37H22V25H20ZM35.54 36.357C34.06 35.469 32.364 35 30.639 35H26V23H28.764C30.381 23 32.001 22.618 33.448 21.895C34.618 21.31 35.928 21 37.237 21H39.706L41.42 24H58C58.552 24 59 24.449 59 25C59 25.551 58.552 26 58 26H56H50H44V28H50H56C56.552 28 57 28.449 57 29C57 29.551 56.552 30 56 30H50H44V32H50H56C56.552 32 57 32.449 57 33C57 33.551 56.552 34 56 34H44V36H56C56.552 36 57 36.449 57 37C57 37.551 56.552 38 56 38H40.361C38.998 38 37.658 37.629 36.489 36.928L35.54 36.357ZM49 58C42.935 58 38 53.065 38 46.976C38 45.192 38.44 43.414 39.274 41.837L40.248 39.993C40.286 39.993 40.323 40.001 40.36 40.001H56C56.56 40.001 57.078 39.837 57.527 39.569L58.726 41.837C59.56 43.414 60 45.191 60 47C60 53.065 55.065 58 49 58Z" fill="#9B59B6"/>
<path d="M49 46C49.552 46 50 46.449 50 47H52C52 45.698 51.161 44.598 50 44.184V42H48V44.184C46.839 44.598 46 45.698 46 47C46 48.654 47.346 50 49 50C49.552 50 50 50.449 50 51C50 51.551 49.552 52 49 52C48.448 52 48 51.551 48 51H46C46 52.302 46.839 53.402 48 53.816V56H50V53.816C51.161 53.402 52 52.302 52 51C52 49.346 50.654 48 49 48C48.448 48 48 47.551 48 47C48 46.449 48.448 46 49 46Z" fill="#9B59B6"/>
<path d="M21 4H13V6H21V4Z" fill="#9B59B6"/>
<path d="M25 4H23V6H25V4Z" fill="#9B59B6"/>
<path d="M11 4H9V6H11V4Z" fill="#9B59B6"/>
<path d="M20 56H14V58H20V56Z" fill="#9B59B6"/>
</svg>
